<svg xmlns="http://www.w3.org/2000/svg" width="540" height="540" id="robotic-startup"> <path fill="#485EFF" d="M298.072 115.286S302.676 60.9 259.589 60.9c0 0 31.389-14.393 51.65 10.104v44.283h-13.167zM373.5 279.032v26.094h-12.775l4.348-26.094zM176.191 277.844l-9.691.338v27.182h22.328zM271.161 260.39v16.605s44.452 26.775 20.396 64.14h20.936l8.069-8.069s10.782-18.094 0-38.988-30.735-24.871-30.735-24.871v-8.817h-18.666z" opacity=".3"></path> <path fill="#5C77FF" d="M206.772 138.966c-1.188-.498-2.553-.921-4.146-1.235 0 0-22.455-2.395-27.57-36.842 0 0-1.371-13.894-1.079-19.89 0 0 2.656-21.478-18.179-30.342 0 0-24.325-10.65-39.097-14.657 0 0-51.087-16.449-61.57-26.661 0 0-4.007 15.981 24.103 29.705 0 0 24.186 12.434 46.087 19.444 0 0-31.893-7.09-49.515-15.449 0 0-17.409-6.791-22.19-7.081 0 0-2.079 13.132 23.609 23.209 0 0 25.113 9.939 41.023 13.019 0 0-18.124-2.725-27.042-5.871 0 0-26.4-4.799-30.468-4.302 0 0 3.631 10.92 24.607 16.788 0 0 27.896 8.512 35.962 9.018 0 0-16.415-1.083-24.262-3.657 0 0-23.404-4.656-31.61-4.59 0 0 3.559 11.206 22.683 14.79 0 0 23.05 4.868 27.257 5.014 0 0-16.343-.155-23.05-1.229 0 0-9.49-.865-15.272.418 0 0 5.845 9.352 21.615 10.577 0 0 18.482 1.299 24.335.945 0 0-27.764 5.473-34.977 10.037 0 0 14.694 10.358 44.532.244 0 0-13.134 6.415-22.629 7.979 0 0-7.354 1.491-11.782 8.269 0 0 19.551 5.51 41.751-4.396 0 0-4.997 5.419-10.922 7.271 0 0-9.137 3.776-14.636 9.979 0 0 9.343 7.501 30.045-4.903 0 0 1.643-.498 4.711-.641 0 0-4.785 4.565-11.066 7.845 0 0-7.07 3.992-9.356 11.912 0 0 10.914 4.859 28.336-6.548 0 0-11.284 7.484-12.289 16.333 0 0 10.774 1.79 17.559-4.696 0 0 4.711.576 13.989-4.987 0 0 2.071.215 3.356-1.28 0 0-1.499 4.778 1.423 7.638 0 0 4.994-.567 7.712-4.135 0 0 .423 3.138 2.633 5.209 0 0 5.783-1.279 7.782-4.42 0 0 2.638 5.215 6.988 7.217 0 0 .936-1.707 2.142-4.398m123.387-.003c1.205 2.691 2.142 4.397 2.142 4.397 4.353-2 6.989-7.216 6.989-7.216 1.998 3.141 7.781 4.42 7.781 4.42 2.21-2.071 2.634-5.209 2.634-5.209 2.717 3.567 7.712 4.135 7.712 4.135 2.922-2.859 1.422-7.639 1.422-7.639 1.285 1.497 3.356 1.28 3.356 1.28 9.279 5.563 13.989 4.988 13.989 4.988 6.786 6.486 17.559 4.696 17.559 4.696-1.004-8.849-12.289-16.333-12.289-16.333 17.422 11.406 28.336 6.548 28.336 6.548-2.285-7.921-9.356-11.912-9.356-11.912-6.281-3.28-11.066-7.845-11.066-7.845 3.068.143 4.711.641 4.711.641 20.702 12.403 30.045 4.903 30.045 4.903-5.499-6.204-14.636-9.979-14.636-9.979-5.924-1.852-10.922-7.271-10.922-7.271 22.201 9.905 41.751 4.396 41.751 4.396-4.429-6.777-11.782-8.27-11.782-8.27-9.494-1.563-22.628-7.978-22.628-7.978 29.836 10.112 44.531-.244 44.531-.244-7.212-4.565-34.977-10.038-34.977-10.038 5.853.354 24.335-.944 24.335-.944 15.771-1.225 21.615-10.578 21.615-10.578-5.781-1.281-15.272-.417-15.272-.417-6.705 1.074-23.05 1.229-23.05 1.229 4.208-.146 27.257-5.014 27.257-5.014 19.124-3.584 22.683-14.79 22.683-14.79-8.206-.065-31.61 4.59-31.61 4.59-7.848 2.574-24.262 3.657-24.262 3.657 8.064-.507 35.961-9.018 35.961-9.018 20.977-5.868 24.607-16.788 24.607-16.788-4.069-.496-30.468 4.302-30.468 4.302-8.92 3.146-27.042 5.87-27.042 5.87 15.91-3.078 41.023-13.018 41.023-13.018 25.688-10.078 23.609-23.209 23.609-23.209-4.781.29-22.19 7.081-22.19 7.081-17.621 8.36-49.515 15.448-49.515 15.448 21.902-7.009 46.087-19.443 46.087-19.443 28.111-13.723 24.105-29.706 24.105-29.706-10.484 10.213-61.571 26.662-61.571 26.662-14.771 4.007-39.097 14.656-39.097 14.656-20.835 8.865-18.179 30.343-18.179 30.343.292 5.997-1.079 19.89-1.079 19.89-5.115 34.445-27.57 36.842-27.57 36.842-1.594.314-2.959.737-4.146 1.235m-62.062 397.873h-.149a5.273 5.273 0 1 1 0-10.546h.149c3.359 0 6.766-.066 10.127-.197 2.894-.103 5.361 2.152 5.475 5.063a5.274 5.274 0 0 1-5.063 5.475c-3.499.136-7.044.205-10.539.205zm-21.092-.842c-.142 0-.285-.006-.428-.018a269.304 269.304 0 0 1-10.642-1.069c-2.891-.349-4.952-2.976-4.604-5.867s2.977-4.951 5.867-4.604c3.37.407 6.81.752 10.223 1.026a5.274 5.274 0 0 1-.416 10.532zm52.315-1.012a5.273 5.273 0 0 1-.619-10.509c3.382-.404 6.804-.883 10.173-1.424a5.266 5.266 0 0 1 6.042 4.37 5.272 5.272 0 0 1-4.372 6.042c-3.507.563-7.07 1.063-10.593 1.483a5.394 5.394 0 0 1-.631.038zm-83.441-3.384c-.348 0-.702-.034-1.056-.107a259.399 259.399 0 0 1-10.439-2.347 5.273 5.273 0 0 1-3.86-6.381c.697-2.828 3.558-4.561 6.381-3.859 3.32.816 6.691 1.575 10.02 2.252a5.274 5.274 0 0 1-1.046 10.442zm114.372-2.226a5.275 5.275 0 0 1-1.25-10.396 251.183 251.183 0 0 0 9.923-2.646 5.271 5.271 0 0 1 6.528 3.604 5.272 5.272 0 0 1-3.604 6.529c-3.404.982-6.883 1.91-10.342 2.756a5.192 5.192 0 0 1-1.255.153zm-144.744-5.903a5.29 5.29 0 0 1-1.674-.273 269.455 269.455 0 0 1-10.075-3.598 5.273 5.273 0 0 1-3.057-6.803 5.27 5.27 0 0 1 6.803-3.056 251.976 251.976 0 0 0 9.676 3.453 5.273 5.273 0 0 1 3.328 6.674 5.273 5.273 0 0 1-5.001 3.603zm174.773-3.419a5.272 5.272 0 0 1-1.87-10.205 256.25 256.25 0 0 0 9.555-3.842 5.279 5.279 0 0 1 6.919 2.786 5.275 5.275 0 0 1-2.787 6.919 262.078 262.078 0 0 1-9.952 4 5.287 5.287 0 0 1-1.865.342zm-203.918-8.334c-.76 0-1.529-.164-2.262-.512a268.948 268.948 0 0 1-9.548-4.779 5.275 5.275 0 0 1 4.911-9.334 255.946 255.946 0 0 0 9.165 4.589 5.273 5.273 0 0 1-2.266 10.036zm232.627-4.58a5.274 5.274 0 0 1-2.456-9.944 256.33 256.33 0 0 0 9.009-4.965 5.273 5.273 0 0 1 5.277 9.131 265.16 265.16 0 0 1-9.383 5.172 5.251 5.251 0 0 1-2.447.606zm-260.123-10.605a5.255 5.255 0 0 1-2.817-.819 269.593 269.593 0 0 1-8.908-5.9 5.275 5.275 0 0 1 6.001-8.675 249.555 249.555 0 0 0 8.554 5.665 5.273 5.273 0 0 1-2.83 9.729zm287.044-5.682a5.273 5.273 0 0 1-3.003-9.612 256.693 256.693 0 0 0 8.34-6.011 5.275 5.275 0 0 1 6.339 8.43 269.008 269.008 0 0 1-8.684 6.261c-.915.63-1.96.932-2.992.932zm-312.523-12.711a5.249 5.249 0 0 1-3.334-1.19 268.883 268.883 0 0 1-8.141-6.931 5.275 5.275 0 0 1 6.998-7.891 255.628 255.628 0 0 0 7.818 6.657 5.272 5.272 0 0 1-3.341 9.355zm337.276-6.686a5.259 5.259 0 0 1-3.949-1.778 5.272 5.272 0 0 1 .452-7.444 256.489 256.489 0 0 0 7.555-6.965 5.27 5.27 0 0 1 7.455.154 5.272 5.272 0 0 1-.153 7.455 269.465 269.465 0 0 1-7.866 7.251 5.25 5.25 0 0 1-3.494 1.327zm-360.37-14.633a5.258 5.258 0 0 1-3.804-1.62 268.952 268.952 0 0 1-7.255-7.86 5.274 5.274 0 0 1 7.89-6.998 256.02 256.02 0 0 0 6.97 7.552 5.273 5.273 0 0 1-3.801 8.926zm382.612-7.587a5.274 5.274 0 0 1-3.941-8.775 256.417 256.417 0 0 0 6.662-7.814 5.273 5.273 0 1 1 8.161 6.681 272.584 272.584 0 0 1-6.936 8.136 5.26 5.26 0 0 1-3.946 1.772zM62.978 432.876a5.264 5.264 0 0 1-4.218-2.103 266.61 266.61 0 0 1-6.264-8.68 5.273 5.273 0 1 1 8.675-5.998 258.53 258.53 0 0 0 6.017 8.336 5.274 5.274 0 0 1-4.21 8.445zm422.406-8.361a5.276 5.276 0 0 1-4.332-8.276 257.243 257.243 0 0 0 5.672-8.553 5.274 5.274 0 0 1 8.905 5.652 269.414 269.414 0 0 1-5.905 8.902 5.26 5.26 0 0 1-4.34 2.275zM45.613 406.648a5.27 5.27 0 0 1-4.569-2.632 264.95 264.95 0 0 1-5.179-9.381 5.275 5.275 0 0 1 2.214-7.122 5.275 5.275 0 0 1 7.121 2.214 254.368 254.368 0 0 0 4.97 9.005 5.27 5.27 0 0 1-1.922 7.205 5.237 5.237 0 0 1-2.635.711zm456.07-8.992a5.273 5.273 0 0 1-4.66-7.732c1.579-3 3.126-6.082 4.593-9.162a5.269 5.269 0 0 1 7.028-2.492 5.271 5.271 0 0 1 2.492 7.028 265.431 265.431 0 0 1-4.785 9.543 5.27 5.27 0 0 1-4.668 2.815zM31.531 378.51a5.277 5.277 0 0 1-4.854-3.206 262.982 262.982 0 0 1-4.004-9.948 5.273 5.273 0 0 1 9.86-3.741 257.624 257.624 0 0 0 3.846 9.553 5.275 5.275 0 0 1-4.848 7.342zm483.084-9.47a5.274 5.274 0 0 1-4.928-7.152 254.648 254.648 0 0 0 3.459-9.671 5.274 5.274 0 0 1 10 3.35 261.943 261.943 0 0 1-3.603 10.075 5.271 5.271 0 0 1-4.928 3.398zM20.967 348.872a5.276 5.276 0 0 1-5.063-3.811 265.865 265.865 0 0 1-2.761-10.336 5.272 5.272 0 0 1 3.863-6.379 5.267 5.267 0 0 1 6.379 3.863 256.37 256.37 0 0 0 2.651 9.924 5.272 5.272 0 0 1-3.604 6.529 5.2 5.2 0 0 1-1.465.21zm503.025-9.837a5.274 5.274 0 0 1-5.123-6.538 257.803 257.803 0 0 0 2.259-10.02 5.27 5.27 0 0 1 6.221-4.111 5.27 5.27 0 0 1 4.111 6.221 262.964 262.964 0 0 1-2.352 10.437 5.275 5.275 0 0 1-5.116 4.011zM14.085 318.197a5.274 5.274 0 0 1-5.199-4.436 268.612 268.612 0 0 1-1.488-10.593 5.274 5.274 0 0 1 4.606-5.864c2.888-.355 5.517 1.715 5.865 4.607.406 3.379.887 6.802 1.43 10.172a5.274 5.274 0 0 1-5.214 6.114zm515.576-10.083a5.273 5.273 0 0 1-5.241-5.908c.409-3.371.756-6.811 1.032-10.222.236-2.903 2.798-5.078 5.682-4.831a5.272 5.272 0 0 1 4.83 5.682 265.523 265.523 0 0 1-1.074 10.641 5.274 5.274 0 0 1-5.229 4.638zM10.966 286.919a5.276 5.276 0 0 1-5.267-5.066c-.141-3.542-.211-7.14-.211-10.69v-.608a5.275 5.275 0 0 1 5.273-5.26h.015a5.273 5.273 0 0 1 5.26 5.287v.567c0 3.426.068 6.882.203 10.288a5.275 5.275 0 0 1-5.273 5.482zm520.597-10.185a5.272 5.272 0 0 1-5.273-5.273v-.297c0-3.312-.066-6.669-.192-9.983a5.275 5.275 0 0 1 5.273-5.476 5.272 5.272 0 0 1 5.265 5.071c.133 3.447.199 6.942.199 10.388v.297a5.272 5.272 0 0 1-5.272 5.273zM11.646 254.895a5.274 5.274 0 0 1-5.262-5.706c.29-3.544.656-7.124 1.086-10.64a5.274 5.274 0 1 1 10.469 1.282 256.673 256.673 0 0 0-1.043 10.219 5.274 5.274 0 0 1-5.25 4.845zm518.075-9.541a5.274 5.274 0 0 1-5.23-4.651c-.402-3.39-.881-6.813-1.42-10.173a5.274 5.274 0 0 1 10.415-1.668 261.01 261.01 0 0 1 1.477 10.596 5.272 5.272 0 0 1-5.242 5.896zM16.096 223.776a5.274 5.274 0 0 1-5.171-6.335c.715-3.476 1.51-6.986 2.365-10.435a5.274 5.274 0 0 1 10.237 2.54 257.35 257.35 0 0 0-2.27 10.017 5.28 5.28 0 0 1-5.161 4.213zm508.032-9.353a5.278 5.278 0 0 1-5.12-4.021 250.145 250.145 0 0 0-2.64-9.926 5.274 5.274 0 0 1 10.134-2.921c.977 3.391 1.902 6.87 2.75 10.34a5.273 5.273 0 0 1-5.124 6.528zM24.274 193.426a5.272 5.272 0 0 1-4.999-6.955 265.42 265.42 0 0 1 3.613-10.07 5.275 5.275 0 0 1 9.853 3.763 254.185 254.185 0 0 0-3.47 9.668 5.275 5.275 0 0 1-4.997 3.594zm490.554-9.032c-2.13 0-4.137-1.3-4.934-3.41a252.572 252.572 0 0 0-3.836-9.553 5.274 5.274 0 1 1 9.705-4.131 263.71 263.71 0 0 1 3.996 9.954 5.274 5.274 0 0 1-4.931 7.14zM36.073 164.303a5.272 5.272 0 0 1-4.754-7.549 268.843 268.843 0 0 1 4.796-9.537 5.274 5.274 0 0 1 9.325 4.928c-1.59 3.01-3.14 6.092-4.605 9.157a5.275 5.275 0 0 1-4.762 3.001zm465.861-8.622a5.278 5.278 0 0 1-4.676-2.825 255.147 255.147 0 0 0-4.959-9.013 5.272 5.272 0 0 1 1.932-7.203 5.271 5.271 0 0 1 7.203 1.932 264.873 264.873 0 0 1 5.166 9.387 5.272 5.272 0 0 1-4.666 7.722zM51.302 136.835a5.27 5.27 0 0 1-4.443-8.103 266.916 266.916 0 0 1 5.915-8.897 5.271 5.271 0 0 1 7.338-1.325 5.272 5.272 0 0 1 1.325 7.339 256.73 256.73 0 0 0-5.682 8.545 5.27 5.27 0 0 1-4.453 2.441zm434.363-8.083a5.265 5.265 0 0 1-4.345-2.279 261.625 261.625 0 0 0-6.008-8.346 5.273 5.273 0 1 1 8.436-6.33 271.708 271.708 0 0 1 6.253 8.687 5.275 5.275 0 0 1-4.336 8.268zM169.504 36.63a5.275 5.275 0 0 1-4.856-3.215 5.272 5.272 0 0 1 2.793-6.915 265.418 265.418 0 0 1 9.956-3.988 5.274 5.274 0 0 1 3.723 9.867 255.138 255.138 0 0 0-9.558 3.83 5.263 5.263 0 0 1-2.058.421zm194.4-3.593a5.235 5.235 0 0 1-1.877-.348 253.722 253.722 0 0 0-9.67-3.464 5.273 5.273 0 1 1 3.355-9.999 266.243 266.243 0 0 1 10.073 3.607 5.275 5.275 0 0 1-1.881 10.204zm-164.749-6.915a5.275 5.275 0 0 1-1.453-10.343 265.009 265.009 0 0 1 10.342-2.744 5.274 5.274 0 0 1 2.498 10.247 252.29 252.29 0 0 0-9.927 2.634 5.322 5.322 0 0 1-1.46.206zm134.752-2.477a5.29 5.29 0 0 1-1.27-.155 256.849 256.849 0 0 0-10.02-2.265 5.274 5.274 0 1 1 2.115-10.332c3.477.712 6.987 1.505 10.437 2.357a5.275 5.275 0 0 1-1.262 10.395zm-104.071-4.348a5.274 5.274 0 0 1-.823-10.481 268.365 268.365 0 0 1 10.594-1.472 5.272 5.272 0 1 1 1.24 10.473c-3.388.4-6.811.876-10.174 1.412-.281.045-.56.068-.837.068zm73.156-1.335c-.212 0-.427-.013-.644-.039a257.49 257.49 0 0 0-10.221-1.038 5.272 5.272 0 1 1 .858-10.512c3.546.289 7.127.652 10.64 1.08a5.274 5.274 0 0 1-.633 10.509zm-41.87-1.736a5.274 5.274 0 0 1-.197-10.544c3.395-.128 6.838-.193 10.236-.193h.446a5.273 5.273 0 1 1 0 10.546h-.446c-3.267 0-6.575.063-9.836.187a4.522 4.522 0 0 1-.203.004z"></path> <path fill="#485EFF" d="M241.947 159.071h57.304v57.304h-57.304z" opacity=".3"></path> <path fill="#5C77FF" d="M289.826 83.081a8.245 8.245 0 0 1 8.245 8.246 8.244 8.244 0 0 1-8.245 8.245 8.245 8.245 0 0 1-8.246-8.245 8.245 8.245 0 0 1 8.246-8.246zm-38.483 0a8.245 8.245 0 0 1 8.245 8.246 8.244 8.244 0 0 1-8.245 8.245 8.246 8.246 0 1 1 0-16.491zm57.033 243.451h-11.819c-2.762 0-5-2.238-5-5s2.238-5 5-5h11.819c2.762 0 5 2.238 5 5s-2.238 5-5 5z"></path> <path fill="#354B87" d="M186.309 58.324C212.94 47.785 241.098 42.441 270 42.441c29.011 0 57.268 5.383 83.986 15.999a5 5 0 0 0 3.693-9.293C329.781 38.062 300.281 32.441 270 32.441c-30.167 0-59.563 5.58-87.371 16.584a5 5 0 1 0 3.68 9.299z"></path> <path fill="#354B87" d="M464.129 133.044a5 5 0 1 0-8.166 5.772c27.212 38.503 41.596 83.866 41.596 131.185 0 66.264-28.473 128.509-78.359 171.82-.032-.06-.07-.115-.103-.174a43.574 43.574 0 0 0-1.306-2.214l-.106-.173a43.19 43.19 0 0 0-1.466-2.139c-.086-.119-.171-.237-.258-.355-.5-.674-1.02-1.332-1.557-1.974l-.286-.336a44.23 44.23 0 0 0-1.717-1.9c-.054-.056-.11-.109-.164-.165a42.757 42.757 0 0 0-1.81-1.754l-.19-.178a44.043 44.043 0 0 0-1.938-1.645c-.116-.093-.231-.186-.348-.277a42.012 42.012 0 0 0-2.005-1.485c-.116-.081-.233-.159-.351-.239a44.475 44.475 0 0 0-2.164-1.392l-.14-.08a42.453 42.453 0 0 0-2.221-1.229c-.092-.047-.182-.097-.273-.144a43.874 43.874 0 0 0-2.713-1.26 43.831 43.831 0 0 0-2.337-.914l-.393-.135a41.634 41.634 0 0 0-2.498-.789c-.029-.009-.061-.016-.09-.023a43.033 43.033 0 0 0-2.526-.615c-.119-.025-.236-.054-.354-.078a44.11 44.11 0 0 0-2.522-.436l-.48-.066a43.26 43.26 0 0 0-2.558-.264c-.136-.011-.271-.017-.407-.024a43.193 43.193 0 0 0-2.724-.094 43.24 43.24 0 0 0-9.744 1.1c-.015-13.151-.612-33.975-25.188-33.975-7.031 0-13.016.813-17.912 2.424l2.18-20.152c.01-.091-.003-.177.002-.267.005-.092.027-.179.027-.271v-11c0-1.327-.527-2.6-1.466-3.537l-7.461-7.455 7.463-7.463a4.999 4.999 0 0 0 1.465-3.535V318.65c0-25.1-15.322-47.153-38.486-56.006v-2.251h.499a5 5 0 0 0 3.535-1.464l21.99-21.99a5 5 0 0 0 1.465-3.536v-24.695l.001-.01c0-22.217 5.648-26.912 11.111-31.452 2.021-1.681 4.146-3.461 5.979-5.887l8.304 27.514a5.004 5.004 0 0 0 4.785 3.557 5 5 0 0 0 4.789-6.446l-12.992-43.049c-.308-16.704-10.354-26.651-27.023-26.651-2.501 0-5.526 0-7.677.994l-.009-.018-.893.446a5.002 5.002 0 0 0-1.692 7.566c.098.124.18.255.274.38a34.657 34.657 0 0 0-17.944-6.15v-4.212h22.488a5 5 0 0 0 3.535-1.464l5.498-5.498a5 5 0 0 0 1.465-3.536V98.295c0-27.008-21.973-48.981-48.981-48.981-27.008 0-48.981 21.973-48.981 48.981v16.493c0 1.326.527 2.598 1.464 3.536l5.498 5.498a4.998 4.998 0 0 0 3.536 1.464h22.488v4.214a34.706 34.706 0 0 0-17.36 5.779 5 5 0 0 0-1.999-7.129l-.893-.446-.008.018c-2.15-.994-5.176-.994-7.677-.994-14.862 0-24.465 7.906-26.589 21.46a4.95 4.95 0 0 0-1.405 2.212l-13.19 43.705a4.999 4.999 0 0 0 4.789 6.446 5.004 5.004 0 0 0 4.785-3.557l8.179-27.102c2.072 3.467 4.755 5.704 7.273 7.797 5.453 4.532 11.089 9.221 11.11 31.331v24.38c0 1.326.527 2.598 1.464 3.536l21.99 21.99a4.998 4.998 0 0 0 3.536 1.464h.498v2.247a60.292 60.292 0 0 0-20.917 13.596c-11.326 11.335-17.563 26.398-17.563 42.415v16.489c0 1.326.526 2.597 1.464 3.535l7.458 7.461-7.458 7.459a4.998 4.998 0 0 0-1.464 3.535v10.391l-3.153 12.75a32 32 0 0 0-14.765-3.608c-17.686 0-32.074 14.388-32.074 32.073 0 1.417.12 2.82.303 4.212a43.3 43.3 0 0 0-8.75-.89c-.938 0-1.869.038-2.794.097l-.43.025a43.714 43.714 0 0 0-3.117.343c-.87.127-1.733.274-2.587.452-.114.023-.227.051-.34.076-.849.184-1.69.389-2.521.621-.062.018-.124.032-.186.05a42.92 42.92 0 0 0-2.511.806c-.145.051-.29.101-.433.153-.8.291-1.589.605-2.367.942l-.429.19a43.74 43.74 0 0 0-2.341 1.123c-.069.036-.136.075-.205.111-.748.395-1.482.811-2.204 1.248-.089.054-.18.105-.27.16-.727.447-1.438.92-2.136 1.409-.132.093-.264.185-.395.279-.684.49-1.354 1-2.008 1.53-.113.091-.223.186-.335.277a43.407 43.407 0 0 0-1.979 1.733l-.054.053c-.631.593-1.24 1.21-1.835 1.842-.093.099-.188.195-.281.296a44.163 44.163 0 0 0-1.667 1.917c-.107.13-.212.261-.318.393a42.933 42.933 0 0 0-1.542 2.041c-.076.106-.148.216-.222.323a42.539 42.539 0 0 0-1.406 2.153c-.03.049-.063.097-.093.146a43.733 43.733 0 0 0-1.293 2.313c-.046.088-.099.169-.144.257C68.335 392.499 42.442 332.616 42.442 270c0-47.318 14.383-92.68 41.593-131.183a5 5 0 1 0-8.166-5.772c-28.41 40.2-43.427 87.558-43.427 136.954 0 67.831 29.109 132.592 79.863 177.678.014.013.032.021.046.034.104.09.221.162.332.244.147.107.291.217.447.308.109.063.227.11.342.165.179.086.358.168.545.232.043.015.079.038.123.052.128.04.256.06.385.089.091.021.18.047.272.063.278.047.556.076.831.076.027 0 .054-.006.082-.007.216-.003.433-.02.649-.052.088-.013.173-.036.26-.054.116-.023.232-.039.348-.071.042-.012.081-.03.123-.043.077-.023.152-.052.228-.079a5.1 5.1 0 0 0 .457-.189c.071-.034.141-.067.21-.104.16-.086.313-.181.463-.283.049-.033.1-.063.147-.098.189-.14.369-.292.537-.457.044-.044.083-.094.127-.139.12-.128.235-.26.342-.399.054-.07.103-.144.153-.218.091-.134.175-.272.253-.415.04-.073.081-.145.117-.22.104-.216.197-.437.27-.669l.007-.017c4.354-13.979 17.122-23.371 31.771-23.371 4.647 0 9.129.936 13.319 2.782.04.018.082.027.122.044a5.014 5.014 0 0 0 2.833.892 5 5 0 0 0 4.474-7.224 22.029 22.029 0 0 1-1.082-2.581 21.916 21.916 0 0 1-1.219-7.234c0-12.171 9.902-22.073 22.074-22.073a21.976 21.976 0 0 1 14.583 5.515c.048.043.104.07.154.111.139.114.286.216.438.315.133.086.265.17.402.242.141.074.287.136.436.196.166.068.331.13.5.179.063.019.119.05.183.065.163.04.325.065.487.09.026.003.051.011.077.014.214.028.428.044.64.044.062 0 .121-.013.183-.016.103-.004.204-.016.307-.025a5.135 5.135 0 0 0 .908-.174c.189-.056.373-.124.554-.201.101-.043.201-.082.299-.132.204-.104.397-.225.585-.355.062-.042.127-.075.188-.121.247-.188.474-.399.683-.631.011-.012.024-.021.035-.032.04-.045.065-.097.103-.143.15-.182.29-.371.414-.574.06-.099.111-.199.163-.301a4.783 4.783 0 0 0 .359-.888c.021-.071.053-.136.071-.208l4.081-16.503h31.924l-.159 54.633a109.53 109.53 0 0 0 6.54 37.346l7.468 20.692a5.002 5.002 0 0 0 4.642 3.303h.062a5.001 5.001 0 0 0 4.66-3.188l7.624-19.613a109.375 109.375 0 0 0 7.481-39.868l-.114-53.304h30.339l-2.596 23.993a5 5 0 0 0 8.28 4.287c1.83-1.616 4.572-2.869 8.06-3.718s7.72-1.293 12.529-1.293c11.923 0 15.188 5.361 15.188 24.941a27.66 27.66 0 0 1-.491 5.189 4.999 4.999 0 0 0 6.919 5.519 32.86 32.86 0 0 1 2.74-1.05 33.035 33.035 0 0 1 10.576-1.726c14.152 0 26.78 8.963 31.422 22.304.08.229.181.447.291.66.035.069.076.135.115.202.081.141.169.276.263.407.049.067.097.136.147.2.115.144.237.279.367.408.034.035.064.073.1.106.165.157.343.3.528.433.055.039.111.072.167.108.141.093.284.179.434.257.068.035.137.068.207.102.147.068.3.129.455.184.068.023.136.05.205.071l.087.03c.121.034.243.052.365.076.09.019.179.043.27.057.206.029.411.043.617.048.035 0 .069.008.104.008.278 0 .559-.024.839-.073.099-.017.192-.051.289-.073.172-.04.345-.072.516-.132l.017-.008a5.03 5.03 0 0 0 .843-.392c.104-.061.196-.136.296-.203.123-.084.253-.157.37-.253 55.321-45.34 87.05-112.331 87.05-183.797-.003-49.398-15.021-96.757-43.433-136.957zm-132.573 20.675c0 9.791-2.893 12.195-7.271 15.834-1.527 1.27-3.142 2.611-4.72 4.262v-23.156c0-5.024-1.039-9.865-3.045-14.315 15.035.993 15.036 13.237 15.036 17.375zm-97.385-38.433-2.569-2.569V98.295c0-21.495 17.487-38.981 38.981-38.981 21.494 0 38.981 17.487 38.981 38.981v14.422l-2.569 2.569h-25.417a5 5 0 0 0-5 5v5.995h-11.99v-5.995a5 5 0 0 0-5-5h-25.417zm-17.286 54.715c-4.378-3.639-7.271-6.043-7.271-15.834 0-4.137.001-16.382 15.036-17.375-2.006 4.451-3.045 9.292-3.045 14.315v13.223l-.001.039v9.893c-1.579-1.651-3.193-2.992-4.719-4.261zm14.718 61.328v-22.176l.001-.01V164.33c.021-13.726 11.193-24.887 24.925-24.887h28.111c7.698 0 14.844 3.474 19.607 9.535 3.479 4.417 5.317 9.739 5.317 15.391v66.96l-19.062 19.062h-1.307a4.926 4.926 0 0 0-2.244-.494l-20.113.494h-16.175l-19.06-19.062zm50.472 29.061v11.974c-2.234 1.722-6.798 4.632-12.102 4.632-3.765 0-7.419-1.514-10.883-4.503v-11.91l7.874-.193h15.111zm-61.464 58.258c0-13.347 5.198-25.9 14.636-35.345a50.287 50.287 0 0 1 13.845-9.79v1.153a5 5 0 0 0 1.464 3.535c5.836 5.837 12.37 8.796 19.418 8.796 11.709 0 20.278-8.437 20.638-8.796a4.998 4.998 0 0 0 1.464-3.535v-1.172c17.287 8.182 28.486 25.557 28.486 45.153v14.418l-8.069 8.069h-83.817l-8.065-8.068v-14.418zm64.03 44.48a4.994 4.994 0 0 0-3.539 1.469 4.997 4.997 0 0 0-1.461 3.542l.125 58.304a99.4 99.4 0 0 1-6.801 36.23l-2.791 7.181-2.939-8.145a99.527 99.527 0 0 1-5.945-33.934l.174-59.633a5 5 0 0 0-5-5.015H220.61v-3.929l8.062-8.062h83.82l8.069 8.063v3.928h-35.92z"></path> <path fill="#354B87" d="M355.157 217.663a5 5 0 0 0-2.363 6.664l18.563 38.975-3.413 3.411a4.956 4.956 0 0 0-1.296 2.318h-5.811a5 5 0 0 0-4.932 4.178l-.659 3.957-15.34 10.827a5 5 0 0 0-2.106 3.772l-.861 13.771a5 5 0 1 0 9.98.625l.712-11.38 5.303-3.743-3.044 18.265a4.95 4.95 0 0 0-.061.747c-.001.025-.008.05-.008.075v24.063c0 2.762 2.238 5 5 5s5-2.238 5-5v-19.063h2.031v19.063c0 2.762 2.238 5 5 5s5-2.238 5-5v-19.063h2.031v19.063c0 2.762 2.238 5 5 5s5-2.238 5-5v-19.063h2.031v19.063c0 2.762 2.238 5 5 5s5-2.238 5-5v-24.063c0-.025-.007-.05-.008-.075a4.95 4.95 0 0 0-.061-.747l-6.016-36.094a4.999 4.999 0 0 0-4.932-4.178h-5.13l1.154-1.154a4.998 4.998 0 0 0 .979-5.687l-20.083-42.164a4.992 4.992 0 0 0-6.66-2.363zm29.857 87.463h-24.289l4.036-24.218.004-.023.309-1.853h15.592l4.348 26.094zm-235.853 35.25a5 5 0 0 0 5-5v-20.012h2.506v20.012a5 5 0 1 0 10 0v-20.012h2.507v20.012a5 5 0 1 0 10 0v-20.012h2.506v20.012a5 5 0 1 0 10 0v-24.813c.002-.067.02-.13.02-.198 0-.438-.057-.864-.163-1.27l-3.167-19.005 6.068 4.283 1.021 10.233a5 5 0 0 0 9.95-.992l-1.248-12.506a5 5 0 0 0-2.092-3.589l-16.012-11.303-.699-4.194a5 5 0 0 0-4.932-4.178h-5.955a4.948 4.948 0 0 0-1.414-3.003l-3.413-3.412 18.563-38.975a5 5 0 1 0-9.028-4.3l-20.082 42.164a5 5 0 0 0 .979 5.686l1.84 1.84h-6.504a5 5 0 0 0-4.932 4.178l-6.253 37.52c-.042.25-.057.5-.061.75 0 .024-.007.048-.007.072v25.012a5.004 5.004 0 0 0 5.002 5zm10.489-62.532h16.541l4.586 27.52h-25.714l4.587-27.52z"></path> <path fill="#5C77FF" d="M364.418 210.673c0 7.313-5.932 13.244-13.243 13.244a13.15 13.15 0 0 1-5.309-1.112c-4.672-2.04-7.941-6.706-7.941-12.131 0-2.131.507-4.147 1.404-5.932a13.223 13.223 0 0 1 11.845-7.317c7.313 0 13.244 5.93 13.244 13.248zm-188.837-1.872c0 7.313 5.932 13.244 13.243 13.244 1.889 0 3.684-.397 5.309-1.112 4.673-2.04 7.942-6.706 7.942-12.131a13.18 13.18 0 0 0-1.405-5.932 13.223 13.223 0 0 0-11.844-7.317c-7.313-.002-13.245 5.929-13.245 13.248z"></path> </svg>